<mxfile host="app.diagrams.net" agent="Mozilla/5.0 (Windows NT 10.0; Win64; x64) AppleWebKit/537.36 (KHTML, like Gecko) Chrome/130.0.0.0 Safari/537.36" version="24.8.0">
  <diagram id="C5RBs43oDa-KdzZeNtuy" name="Page-1">
    <mxGraphModel dx="977" dy="494" grid="1" gridSize="10" guides="1" tooltips="1" connect="1" arrows="1" fold="1" page="1" pageScale="1" pageWidth="827" pageHeight="1169" math="0" shadow="0">
      <root>
        <mxCell id="WIyWlLk6GJQsqaUBKTNV-0" />
        <mxCell id="WIyWlLk6GJQsqaUBKTNV-1" parent="WIyWlLk6GJQsqaUBKTNV-0" />
        <mxCell id="l76zbvXi_zIafQC9RNWT-6" value="&lt;b&gt;Troop&lt;/b&gt;" style="html=1;whiteSpace=wrap;" vertex="1" parent="WIyWlLk6GJQsqaUBKTNV-1">
          <mxGeometry x="447" y="210" width="286" height="60" as="geometry" />
        </mxCell>
        <mxCell id="l76zbvXi_zIafQC9RNWT-33" value="" style="edgeStyle=orthogonalEdgeStyle;rounded=0;orthogonalLoop=1;jettySize=auto;html=1;" edge="1" parent="WIyWlLk6GJQsqaUBKTNV-1" source="l76zbvXi_zIafQC9RNWT-16" target="l76zbvXi_zIafQC9RNWT-6">
          <mxGeometry relative="1" as="geometry" />
        </mxCell>
        <mxCell id="l76zbvXi_zIafQC9RNWT-16" value="Warrior" style="html=1;whiteSpace=wrap;fontStyle=1" vertex="1" parent="WIyWlLk6GJQsqaUBKTNV-1">
          <mxGeometry x="414" y="320" width="60" height="50" as="geometry" />
        </mxCell>
        <mxCell id="l76zbvXi_zIafQC9RNWT-32" value="" style="edgeStyle=orthogonalEdgeStyle;rounded=0;orthogonalLoop=1;jettySize=auto;html=1;" edge="1" parent="WIyWlLk6GJQsqaUBKTNV-1" source="l76zbvXi_zIafQC9RNWT-22" target="l76zbvXi_zIafQC9RNWT-6">
          <mxGeometry relative="1" as="geometry" />
        </mxCell>
        <mxCell id="l76zbvXi_zIafQC9RNWT-22" value="&lt;b&gt;Fodder&lt;/b&gt;" style="html=1;whiteSpace=wrap;" vertex="1" parent="WIyWlLk6GJQsqaUBKTNV-1">
          <mxGeometry x="490" y="320" width="60" height="50" as="geometry" />
        </mxCell>
        <mxCell id="l76zbvXi_zIafQC9RNWT-35" value="" style="edgeStyle=orthogonalEdgeStyle;rounded=0;orthogonalLoop=1;jettySize=auto;html=1;" edge="1" parent="WIyWlLk6GJQsqaUBKTNV-1" source="l76zbvXi_zIafQC9RNWT-34" target="l76zbvXi_zIafQC9RNWT-6">
          <mxGeometry relative="1" as="geometry" />
        </mxCell>
        <mxCell id="l76zbvXi_zIafQC9RNWT-34" value="&lt;b&gt;Tank&lt;/b&gt;" style="html=1;whiteSpace=wrap;" vertex="1" parent="WIyWlLk6GJQsqaUBKTNV-1">
          <mxGeometry x="560" y="320" width="60" height="50" as="geometry" />
        </mxCell>
        <mxCell id="l76zbvXi_zIafQC9RNWT-37" value="" style="edgeStyle=orthogonalEdgeStyle;rounded=0;orthogonalLoop=1;jettySize=auto;html=1;" edge="1" parent="WIyWlLk6GJQsqaUBKTNV-1" source="l76zbvXi_zIafQC9RNWT-36" target="l76zbvXi_zIafQC9RNWT-6">
          <mxGeometry relative="1" as="geometry" />
        </mxCell>
        <mxCell id="l76zbvXi_zIafQC9RNWT-36" value="&lt;b&gt;Ranger&lt;/b&gt;" style="html=1;whiteSpace=wrap;" vertex="1" parent="WIyWlLk6GJQsqaUBKTNV-1">
          <mxGeometry x="630" y="320" width="60" height="50" as="geometry" />
        </mxCell>
        <mxCell id="l76zbvXi_zIafQC9RNWT-39" value="" style="edgeStyle=orthogonalEdgeStyle;rounded=0;orthogonalLoop=1;jettySize=auto;html=1;" edge="1" parent="WIyWlLk6GJQsqaUBKTNV-1" source="l76zbvXi_zIafQC9RNWT-38" target="l76zbvXi_zIafQC9RNWT-6">
          <mxGeometry relative="1" as="geometry" />
        </mxCell>
        <mxCell id="l76zbvXi_zIafQC9RNWT-38" value="&lt;b&gt;Healer&lt;/b&gt;" style="html=1;whiteSpace=wrap;" vertex="1" parent="WIyWlLk6GJQsqaUBKTNV-1">
          <mxGeometry x="700" y="320" width="60" height="50" as="geometry" />
        </mxCell>
        <mxCell id="l76zbvXi_zIafQC9RNWT-40" value="&lt;b&gt;Tower&lt;/b&gt;" style="html=1;whiteSpace=wrap;" vertex="1" parent="WIyWlLk6GJQsqaUBKTNV-1">
          <mxGeometry x="225" y="215" width="110" height="50" as="geometry" />
        </mxCell>
        <mxCell id="l76zbvXi_zIafQC9RNWT-47" value="" style="edgeStyle=orthogonalEdgeStyle;rounded=0;orthogonalLoop=1;jettySize=auto;html=1;" edge="1" parent="WIyWlLk6GJQsqaUBKTNV-1" source="l76zbvXi_zIafQC9RNWT-41" target="l76zbvXi_zIafQC9RNWT-40">
          <mxGeometry relative="1" as="geometry" />
        </mxCell>
        <mxCell id="l76zbvXi_zIafQC9RNWT-41" value="&lt;b&gt;Offense&lt;/b&gt;" style="html=1;whiteSpace=wrap;" vertex="1" parent="WIyWlLk6GJQsqaUBKTNV-1">
          <mxGeometry x="180" y="320" width="60" height="50" as="geometry" />
        </mxCell>
        <mxCell id="l76zbvXi_zIafQC9RNWT-48" value="" style="edgeStyle=orthogonalEdgeStyle;rounded=0;orthogonalLoop=1;jettySize=auto;html=1;" edge="1" parent="WIyWlLk6GJQsqaUBKTNV-1" source="l76zbvXi_zIafQC9RNWT-44" target="l76zbvXi_zIafQC9RNWT-40">
          <mxGeometry relative="1" as="geometry" />
        </mxCell>
        <mxCell id="l76zbvXi_zIafQC9RNWT-44" value="&lt;b&gt;Defense&lt;/b&gt;" style="html=1;whiteSpace=wrap;" vertex="1" parent="WIyWlLk6GJQsqaUBKTNV-1">
          <mxGeometry x="250" y="320" width="60" height="50" as="geometry" />
        </mxCell>
        <mxCell id="l76zbvXi_zIafQC9RNWT-49" value="" style="edgeStyle=orthogonalEdgeStyle;rounded=0;orthogonalLoop=1;jettySize=auto;html=1;" edge="1" parent="WIyWlLk6GJQsqaUBKTNV-1" source="l76zbvXi_zIafQC9RNWT-45" target="l76zbvXi_zIafQC9RNWT-40">
          <mxGeometry relative="1" as="geometry" />
        </mxCell>
        <mxCell id="l76zbvXi_zIafQC9RNWT-45" value="&lt;b&gt;Support&lt;/b&gt;" style="html=1;whiteSpace=wrap;" vertex="1" parent="WIyWlLk6GJQsqaUBKTNV-1">
          <mxGeometry x="320" y="320" width="60" height="50" as="geometry" />
        </mxCell>
      </root>
    </mxGraphModel>
  </diagram>
</mxfile>
